#!OML:ASF H:\BabyWalks\Project 1\Capture day 1\Session 1\baby.ASF
:FULLY-SPECIFIED
:DEGREES
750
root 32.0401 17.2271 -6.38561 -172.089 65.3232 -168.79
lowerback 15.3849 2.51887 1.65256
upperback 5.94896 3.96816 -0.487745
thorax -2.16008 2.17856 -2.11301
lowerneck -1.8236 -1.763 4.91283
upperneck 2.09956 -2.44253 -1.66857
head 0.874906 -1.19935 -1.37568
rclavicle 4.96962e-015 -1.43125e-014
rhumerus -41.7656 15.4312 -87.9037
rradius 60.1679
rwrist -0.263728
rhand -8.07347 -14.2651
rfingers 7.12502
rthumb 17.8381 -43.467
lclavicle 4.96962e-015 -1.43125e-014
lhumerus -40.3283 -7.15677 75.8854
lradius 57.4168
lwrist 3.10364
lhand -6.32301 9.35884
lfingers 7.12502
lthumb 19.5218 38.3988
rfemur 19.4677 10.9195 26.8561
rtibia 6.66451
rfoot -19.8928 -9.38743
rtoes 1.68742
lfemur -23.2883 0.950322 -11.4285
ltibia 40.6497
lfoot -16.7603 -5.42726
ltoes -5.00972
751
root 32.0463 17.2316 -6.39423 -171.945 65.4827 -168.822
lowerback 15.4025 2.50245 1.5982
upperback 5.91981 3.93415 -0.538385
thorax -2.20159 2.15934 -2.13212
lowerneck -1.86882 -1.70913 4.90228
upperneck 2.06622 -2.37407 -1.60804
head 0.875175 -1.16504 -1.35417
rclavicle 1.45113e-014 1.82882e-014
rhumerus -41.7092 15.4203 -87.9459
rradius 60.3915
rwrist -0.417368
rhand -8.36722 -14.3316
rfingers 7.12502
rthumb 17.5555 -43.5589
lclavicle 1.45113e-014 1.82882e-014
lhumerus -40.2474 -7.43379 75.7539
lradius 58.1356
lwrist 3.49048
lhand -6.32612 9.28902
lfingers 7.12502
lthumb 19.5188 38.3293
rfemur 19.5388 11.064 26.8803
rtibia 6.19331
rfoot -19.7344 -9.85401
rtoes 2.14873
lfemur -23.392 1.01559 -11.4786
ltibia 40.6373
lfoot -16.7635 -5.3069
ltoes -5.04702
752
root 32.0509 17.2353 -6.40036 -171.799 65.6209 -168.852
lowerback 15.4271 2.47684 1.54313
upperback 5.89199 3.88845 -0.582298
thorax -2.24645 2.13433 -2.14222
lowerneck -1.90958 -1.65562 4.89032
upperneck 2.01432 -2.30579 -1.54712
head 0.868824 -1.13106 -1.33201
rclavicle 3.71727e-014 -1.59028e-014
rhumerus -41.6596 15.4027 -87.978
rradius 60.6191
rwrist -0.566722
rhand -8.69281 -14.385
rfingers 7.12502
rthumb 17.2421 -43.6401
lclavicle 3.71727e-014 -1.59028e-014
lhumerus -40.1723 -7.6931 75.617
lradius 58.8216
lwrist 3.88864
lhand -6.28704 9.2309
lfingers 7.12502
lthumb 19.5564 38.2673
rfemur 19.6071 11.189 26.9034
rtibia 5.7197
rfoot -19.5805 -10.2389
rtoes 2.56094
lfemur -23.5164 1.08559 -11.5206
ltibia 40.6318
lfoot -16.7607 -5.21253
ltoes -5.10019
753
root 32.054 17.2382 -6.404 -171.655 65.7388 -168.882
lowerback 15.4535 2.44179 1.48227
upperback 5.87036 3.83032 -0.617272
thorax -2.28739 2.10337 -2.13752
lowerneck -1.94464 -1.60078 4.8765
upperneck 1.94056 -2.23523 -1.49091
head 0.854662 -1.09631 -1.31067
rclavicle -6.2816e-014 3.26007e-014
rhumerus -41.6082 15.3887 -87.9973
rradius 60.8457
rwrist -0.702634
rhand -9.02897 -14.4288
rfingers 7.12502
rthumb 16.9185 -43.7119
lclavicle -6.2816e-014 3.26007e-014
lhumerus -40.0954 -7.91574 75.4741
lradius 59.4669
lwrist 4.28627
lhand -6.22292 9.18403
lfingers 7.12502
lthumb 19.618 38.2142
rfemur 19.6844 11.2956 26.9228
rtibia 5.22543
rfoot -19.4184 -10.5333
rtoes 2.89228
lfemur -23.6575 1.15889 -11.5545
ltibia 40.6327
lfoot -16.7513 -5.14379
ltoes -5.16937
754
root 32.0564 17.2404 -6.40614 -171.511 65.8583 -168.899
lowerback 15.4764 2.40548 1.42206
upperback 5.85952 3.77162 -0.644483
thorax -2.31553 2.07273 -2.12427
lowerneck -1.9767 -1.54799 4.86205
upperneck 1.849 -2.167 -1.44251
head 0.834241 -1.06308 -1.29151
rclavicle -1.24439e-013 3.26007e-014
rhumerus -41.5569 15.3814 -88.0028
rradius 61.0703
rwrist -0.822662
rhand -9.36378 -14.4631
rfingers 7.12502
rthumb 16.5962 -43.7735
lclavicle -1.24439e-013 3.26007e-014
lhumerus -40.019 -8.11715 75.3321
lradius 60.07
lwrist 4.69114
lhand -6.14631 9.16168
lfingers 7.12502
lthumb 19.6917 38.1843
rfemur 19.7961 11.4062 26.9382
rtibia 4.67918
rfoot -19.229 -10.7342
rtoes 3.13654
lfemur -23.7947 1.24234 -11.5796
ltibia 40.6392
lfoot -16.7451 -5.08464
ltoes -5.21821
755
root 32.0581 17.2419 -6.40697 -171.376 65.9779 -168.914
lowerback 15.4993 2.36745 1.36227
upperback 5.85935 3.71183 -0.664532
thorax -2.33289 2.04212 -2.10312
lowerneck -2.00324 -1.49498 4.84034
upperneck 1.7397 -2.09781 -1.39822
head 0.80736 -1.0297 -1.27215
rclavicle 1.03368e-014 7.95139e-015
rhumerus -41.5056 15.386 -87.9944
rradius 61.2892
rwrist -0.929655
rhand -9.69001 -14.485
rfingers 7.12502
rthumb 16.2821 -43.8213
lclavicle 1.03368e-014 7.95139e-015
lhumerus -39.9387 -8.28395 75.1936
lradius 60.6147
lwrist 5.08149
lhand -6.07819 9.1456
lfingers 7.12502
lthumb 19.7572 38.1615
rfemur 19.9678 11.5187 26.9452
rtibia 4.03189
rfoot -18.9909 -10.8369
rtoes 3.32694
lfemur -23.9246 1.33146 -11.6007
ltibia 40.6498
lfoot -16.7407 -5.0316
ltoes -5.27385
756
root 32.0589 17.2428 -6.40669 -171.253 66.097 -168.926
lowerback 15.527 2.32944 1.31046
upperback 5.86664 3.6541 -0.680984
thorax -2.34451 2.01305 -2.08297
lowerneck -2.02471 -1.44626 4.81853
upperneck 1.61762 -2.03379 -1.36085
head 0.775389 -0.999149 -1.25486
rclavicle -8.54774e-015 -1.03368e-014
rhumerus -41.4574 15.3895 -87.9732
rradius 61.4973
rwrist -1.01844
rhand -9.99059 -14.4967
rfingers 7.12502
rthumb 15.9927 -43.8566
lclavicle -8.54774e-015 -1.03368e-014
lhumerus -39.856 -8.43234 75.0608
lradius 61.1041
lwrist 5.45786
lhand -6.02104 9.14215
lfingers 7.12502
lthumb 19.8121 38.1524
rfemur 20.2429 11.6316 26.9446
rtibia 3.194
rfoot -18.6551 -10.8494
rtoes 3.46045
lfemur -24.0453 1.42094 -11.6187
ltibia 40.6635
lfoot -16.7381 -4.97905
ltoes -5.3103
757
root 32.0591 17.2431 -6.40553 -171.156 66.2178 -168.95
lowerback 15.5536 2.29071 1.25479
upperback 5.88488 3.59593 -0.692082
thorax -2.34454 1.98431 -2.05446
lowerneck -2.04603 -1.39659 4.8004
upperneck 1.4908 -1.96822 -1.34153
head 0.741821 -0.96806 -1.24393
rclavicle -5.1684e-015 1.43125e-014
rhumerus -41.4059 15.4059 -87.938
rradius 61.6881
rwrist -1.09679
rhand -10.2625 -14.4948
rfingers 7.12502
rthumb 15.7308 -43.8754
lclavicle -5.1684e-015 1.43125e-014
lhumerus -39.7692 -8.54751 74.9373
lradius 61.532
lwrist 5.80606
lhand -5.97839 9.16784
lfingers 7.12502
lthumb 19.8531 38.1738
rfemur 20.7075 11.744 26.9341
rtibia 1.98958
rfoot -18.1258 -10.7799
rtoes 3.57346
lfemur -24.1527 1.5077 -11.6413
ltibia 40.6779
lfoot -16.7367 -4.91997
ltoes -5.34968
758
root 32.0586 17.2429 -6.40367 -171.085 66.3373 -168.986
lowerback 15.5932 2.25091 1.20261
upperback 5.90343 3.53728 -0.701564
thorax -2.35096 1.95538 -2.02681
lowerneck -2.06475 -1.35286 4.77375
upperneck 1.36866 -1.91008 -1.32581
head 0.709074 -0.940681 -1.23279
rclavicle -1.0138e-014 1.19271e-014
rhumerus -41.3659 15.4284 -87.8972
rradius 61.8572
rwrist -1.16273
rhand -10.5099 -14.4843
rfingers 7.12502
rthumb 15.4926 -43.8836
lclavicle -1.0138e-014 1.19271e-014
lhumerus -39.6933 -8.64286 74.8243
lradius 61.8992
lwrist 6.11489
lhand -5.95867 9.21507
lfingers 7.12502
lthumb 19.8721 38.2191
rfemur 21.5621 11.8472 26.9236
rtibia 4.77083e-014
rfoot -17.1793 -10.6335
rtoes 3.65909
lfemur -24.2467 1.58739 -11.6687
ltibia 40.691
lfoot -16.7368 -4.85305
ltoes -5.36238
759
root 32.0564 17.2424 -6.4001 -171.039 66.4243 -169.049
lowerback 15.6486 2.20105 1.14909
upperback 5.91516 3.46514 -0.706739
thorax -2.37374 1.91932 -1.99267
lowerneck -2.07622 -1.30947 4.74743
upperneck 1.25003 -1.85186 -1.31885
head 0.676145 -0.913253 -1.22447
rclavicle -3.63776e-014 8.74653e-015
rhumerus -41.3356 15.4563 -87.8492
rradius 61.9995
rwrist -1.22315
rhand -10.7337 -14.4614
rfingers 7.12502
rthumb 15.277 -43.8772
lclavicle -3.63776e-014 8.74653e-015
lhumerus -39.626 -8.71838 74.7255
lradius 62.204
lwrist 6.37635
lhand -5.96201 9.27955
lfingers 7.12502
lthumb 19.8689 38.2839
rfemur 21.4524 11.9459 26.8518
rtibia -2.54444e-014
rfoot -17.2866 -10.4756
rtoes 3.73752
lfemur -24.355 1.64251 -11.7029
ltibia 40.6994
lfoot -16.7233 -4.79049
ltoes -5.39507
760
root 32.0529 17.2418 -6.3954 -171.024 66.4896 -169.142
lowerback 15.7119 2.14465 1.09365
upperback 5.92477 3.38422 -0.709563
thorax -2.40341 1.87876 -1.95389
lowerneck -2.08303 -1.26819 4.72564
upperneck 1.13543 -1.79616 -1.32383
head 0.64352 -0.887093 -1.22077
rclavicle 3.35946e-014 -1.59028e-014
rhumerus -41.309 15.4864 -87.7922
rradius 62.1108
rwrist -1.27224
rhand -10.9267 -14.4327
rfingers 7.12502
rthumb 15.0911 -43.8626
lclavicle 3.35946e-014 -1.59028e-014
lhumerus -39.5626 -8.77487 74.6421
lradius 62.4407
lwrist 6.58573
lhand -5.98615 9.3451
lfingers 7.12502
lthumb 19.8457 38.3519
rfemur 21.3402 12.0233 26.764
rtibia 1.27222e-014
rfoot -17.3891 -10.2875
rtoes 3.80311
lfemur -24.4678 1.67666 -11.7471
ltibia 40.6986
lfoot -16.697 -4.72898
ltoes -5.43017
761
root 32.0481 17.2413 -6.38971 -171.037 66.5308 -169.266
lowerback 15.7754 2.07992 1.03505
upperback 5.93415 3.29193 -0.709805
thorax -2.43402 1.83253 -1.90853
lowerneck -2.08666 -1.22841 4.70747
upperneck 1.02706 -1.7423 -1.33947
head 0.612171 -0.861813 -1.22116
rclavicle 2.36554e-014 -4.21423e-014
rhumerus -41.2797 15.5199 -87.7264
rradius 62.1858
rwrist -1.3153
rhand -11.0832 -14.4036
rfingers 7.12502
rthumb 14.9404 -43.8448
lclavicle 2.36554e-014 -4.21423e-014
lhumerus -39.5027 -8.80819 74.5726
lradius 62.613
lwrist 6.73771
lhand -6.03098 9.42376
lfingers 7.12502
lthumb 19.8026 38.435
rfemur 21.2241 12.0765 26.6633
rtibia -4.13472e-014
rfoot -17.4849 -10.0846
rtoes 3.87627
lfemur -24.5858 1.68801 -11.8012
ltibia 40.6852
lfoot -16.6533 -4.66759
ltoes -5.49865
